<?xml version="1.0" encoding="utf-8"?>
<!-- Generator: Adobe Illustrator 21.0.2, SVG Export Plug-In . SVG Version: 6.00 Build 0)  -->
<svg xmlns="http://www.w3.org/2000/svg" xmlns:xlink="http://www.w3.org/1999/xlink" version="1.1" id="Layer_1" x="0px" y="0px" viewBox="0 0 48 48" style="enable-background:new 0 0 48 48;" xml:space="preserve" width="480px" height="480px">
<g id="surface1">
	<path style="fill:#F4B10B;" d="M16,39h16v6H16V39z"/>
	<path style="fill:#F4B10B;" d="M39,18C39,18,39,18.1,39,18c-0.3-3.8-1.8-7.2-4.2-9.8c-1.8-1.9-4.1-3.1-6.8-3.8   c-0.8-0.4-1.6-0.8-2.3-1.4l-1.1-0.9c-0.4-0.3-0.9-0.3-1.3,0l-1.1,0.9c-0.7,0.6-1.5,1-2.3,1.4c-2.6,0.6-4.9,1.9-6.7,3.8   c-2.5,2.5-3.9,5.9-4.2,9.7c0,0,0,0-0.1,0c0,0-2,1.7-2,2c0.1,2.6,0.4,4.8,0.8,7c0.1,0.3,2.3,1,2.3,1c0.2,1,0.5,2,0.8,3l1.1,2h24   l1.1-2c0.3-1,0.5-2,0.8-3c0,0,2.2-0.7,2.3-1c0.5-2.2,0.8-4.4,0.9-7C41,19.7,39,18,39,18z"/>
	<path style="fill:#B57F08;" d="M12,32h24v4H12V32z"/>
	<path style="fill:#FFD600;" d="M24,42c-3.7,0-6.2-1.5-7.7-2.7c-0.8-0.7-1.4-1.6-1.7-2.6c-1.3-4.9-3.5-10.6-3.6-17   C10.8,12.5,15.3,6,24,6s13.2,6.5,13,13.7c-0.2,6.3-2.3,12.1-3.6,17c-0.3,1-0.8,2-1.7,2.6C30.2,40.5,27.7,42,24,42z"/>
	<path style="fill:#684903;" d="M26,36h-4c-0.6,0-1-0.4-1-1s0.4-1,1-1h4c0.6,0,1,0.4,1,1S26.6,36,26,36z"/>
	<path style="fill:#FFC107;" d="M27,32l-3-3l-3,3l-6-6l4-2h10l4,2L27,32z"/>
	<path style="fill:#F4B10B;" d="M29,18c-2.8,0-4.3,2.3-5,3c-0.7-0.7-2.2-3-5-3s-5,2.2-5,5s2.2,5,5,5c2.9,0,5-3,5-3s2.1,3,5,3   c2.8,0,5-2.2,5-5S31.8,18,29,18z"/>
	<path style="fill:#FFEA00;" d="M22,23c0,1.7-1.3,3-3,3s-3-1.3-3-3s1.3-3,3-3S22,21.3,22,23z"/>
	<path style="fill:#FFEA00;" d="M32,23c0,1.7-1.3,3-3,3s-3-1.3-3-3s1.3-3,3-3S32,21.3,32,23z"/>
	<path style="fill:#684903;" d="M30,23c0,0.6-0.4,1-1,1s-1-0.4-1-1s0.4-1,1-1S30,22.4,30,23z"/>
	<path style="fill:#FFD600;" d="M25,4c0,0.6-0.4,1-1,1s-1-0.4-1-1s0.4-1,1-1S25,3.4,25,4z"/>
	<path style="fill:#684903;" d="M20,23c0,0.6-0.4,1-1,1s-1-0.4-1-1s0.4-1,1-1S20,22.4,20,23z"/>
	<path style="fill:#DD9F05;" d="M12,38c-0.6,0-1-0.4-1-1v-6c0-0.6,0.4-1,1-1s1,0.4,1,1v6C13,37.6,12.6,38,12,38z"/>
	<path style="fill:#FFD600;" d="M33,46H15c-0.6,0-1-0.4-1-1s0.4-1,1-1h18c0.6,0,1,0.4,1,1S33.6,46,33,46z"/>
	<path style="fill:#DD9F05;" d="M36,38c-0.6,0-1-0.4-1-1v-6c0-0.6,0.4-1,1-1s1,0.4,1,1v6C37,37.6,36.6,38,36,38z"/>
</g>
</svg>
