<?xml version="1.0" encoding="utf-8"?>
<!-- Generator: Adobe Illustrator 19.1.1, SVG Export Plug-In . SVG Version: 6.00 Build 0)  -->
<svg version="1.1"  xmlns="http://www.w3.org/2000/svg" xmlns:xlink="http://www.w3.org/1999/xlink" x="0px" y="0px"
	 viewBox="0 0 48 48" enable-background="new 0 0 48 48" xml:space="preserve">
<rect x="22" y="2" fill="#F9A825" width="4" height="4"/>
<rect x="23" y="2" fill="#FFF176" width="2" height="4"/>
<rect x="12" y="8" fill="#1565C0" width="24" height="38"/>
<path fill="#1E88E5" d="M38,47H10v-3h28V47z M37,10H11v5h26V10z"/>
<rect x="15" y="11" fill="#263238" width="18" height="3"/>
<path fill="#0D47A1" d="M14,8l8-3h4l8,3H14z M23,17h-8v9h8V17z M33,26h-8v-9h8V26z M23,35h-8v-7h8V35z M33,35h-8v-7h8V35z M23,44h-8
	v-7h8V44z M33,44h-8v-7h8V44z M24,1l-2,1v1h4V2L24,1z"/>
<path fill="#ECEFF1" d="M17,21h-2v-4h2V21z M20,17h-2v4h2V17z M23,17h-2v4h2V17z M17,22h-2v4h2V22z M20,22h-2v4h2V22z M23,22h-2v4h2
	V22z M27,17h-2v4h2V17z M30,17h-2v4h2V17z M33,17h-2v4h2V17z M27,22h-2v4h2V22z M30,22h-2v4h2V22z M33,22h-2v4h2V22z"/>
</svg>
