<?xml version="1.0" encoding="UTF-8"?>
<svg xmlns="http://www.w3.org/2000/svg" xmlns:xlink="http://www.w3.org/1999/xlink" viewBox="0 0 48 48" version="1.1" width="480px" height="480px">
<g id="surface1">
<path style=" fill:#9FA8DA;" d="M 41 33 C 41 33 41.101563 2 24 2 C 6.898438 2 7 33 7 33 C 7 33 12.699219 41.199219 19 44.5 L 20 46 L 28 46 L 29 44.5 C 35.300781 41.199219 41 33 41 33 Z "/>
<path style=" " d="M 24.101563 4 C 24 4 24 4 24.101563 4 C 7.5 4.101563 7.398438 38.5 20 45.5 C 19.800781 42.800781 19 31 16.699219 25.5 C 15.199219 24 14 22.601563 14 22 C 14 14.601563 17.898438 7 24 7 C 30.101563 7 34 15.101563 34 22 C 34 22.5 32.898438 23.898438 31.300781 25.300781 C 29 30.800781 28.199219 42.898438 28 45.5 C 40.699219 38.601563 40.699219 4.101563 24.101563 4 Z "/>
<path style=" fill:#455A64;" d="M 35 36 C 35 36 33.199219 43 28 46 C 28 46 28.699219 31.5 31.300781 25.300781 C 32.800781 23.898438 34 22.5 34 22 Z M 14 22 L 13 36 C 13 36 14.800781 43 20 46 C 20 46 19.300781 31.601563 16.699219 25.398438 C 15.199219 24 14 22.601563 14 22 Z M 22 32 L 21.101563 46 L 27 46 L 26 32 Z "/>
<path style=" fill:#212121;" d="M 21.601563 38 L 26.398438 38 L 26.5 40 L 21.398438 40 Z M 21.898438 34 L 21.800781 36 L 26.300781 36 L 26.199219 34 Z M 26.699219 42 L 21.300781 42 L 21.199219 44 L 26.800781 44 Z "/>
<path style=" fill:#C5CAE9;" d="M 24.101563 20.898438 C 22 20.898438 17.398438 17.398438 15.199219 15 C 14.398438 17.101563 14 19.601563 14 22 C 14 23.601563 21.300781 29.898438 24.101563 29.898438 C 26.898438 29.898438 34 23.398438 34 22 C 34 19.699219 33.5 17.199219 32.699219 15 C 30.5 17.398438 26.101563 20.898438 24.101563 20.898438 Z "/>
<path style=" fill:#7986CB;" d="M 19.101563 8.898438 C 19.101563 9 19.199219 9.101563 19.199219 9.101563 C 21.898438 12.398438 22 17 22 17 C 22 17 19.5 13.398438 16.898438 11.398438 C 17.601563 10.398438 18.300781 9.601563 19.101563 8.898438 Z M 28.800781 8.898438 C 28.800781 9 28.699219 9.101563 28.699219 9.101563 C 26.101563 12.398438 26 17 26 17 C 26 17 28.5 13.398438 31.101563 11.398438 C 30.398438 10.398438 29.601563 9.601563 28.800781 8.898438 Z "/>
<path style=" " d="M 31.5 20 C 31.101563 20.199219 30.699219 20.300781 30.199219 20.5 C 29.398438 20.898438 28.601563 21.300781 27.800781 21.699219 C 26.5 22.398438 25.300781 23.199219 24.101563 24 C 22.898438 23.199219 21.601563 22.398438 20.199219 21.699219 C 19.398438 21.300781 18.5 20.898438 17.699219 20.5 C 16.800781 20.199219 16 19.800781 15 19.601563 C 15.601563 20.398438 16.199219 21.101563 16.898438 21.800781 C 17.601563 22.5 18.199219 23.101563 18.898438 23.699219 C 20.300781 24.898438 21.699219 26 23.300781 27.101563 C 23.800781 27.398438 24.5 27.398438 25 27.101563 C 26.5 26.101563 27.800781 24.898438 29.199219 23.699219 C 29.898438 23.101563 30.5 22.5 31.101563 21.800781 C 31.398438 21.5 31.699219 21.101563 32 20.800781 C 32.300781 20.398438 32.601563 20.101563 32.800781 19.699219 C 32.300781 19.699219 31.898438 19.898438 31.5 20 Z "/>
</g>
</svg>
